<!DOCTYPE svg PUBLIC "-//W3C//DTD SVG 1.1//EN" "http://www.w3.org/Graphics/SVG/1.1/DTD/svg11.dtd">

<!-- Uploaded to: SVG Repo, www.svgrepo.com, Transformed by: SVG Repo Mixer Tools -->
<svg fill="#ffffff" width="64px" height="64px" viewBox="0 0 32 32" id="icon" xmlns="http://www.w3.org/2000/svg" stroke="#ffffff">

<g id="SVGRepo_bgCarrier" stroke-width="0"/>

<g id="SVGRepo_tracerCarrier" stroke-linecap="round" stroke-linejoin="round"/>

<g id="SVGRepo_iconCarrier"> <defs> <style> .cls-1 { fill: none; } </style> </defs> <path d="M29.4384,16.5715l-7.985-7.9856a2.0014,2.0014,0,0,0-2.8291,0l-5.3584,5.3584L9,2H7L2,16H4l.999-3h6l.8035,2.4077L4.5858,22.6244a2,2,0,0,0,0,2.8282L9.1316,30h9.5908l10.716-10.717A1.9173,1.9173,0,0,0,29.4384,16.5715ZM5.6653,11l2.331-7,2.3355,7Zm12.229,17H9.96L6,24.0381l6.3123-6.3115L20.24,25.6538Zm3.76-3.76-7.9275-7.9272L20.0393,10l7.9268,7.9272Z"/></g>

</svg>